<svg version="1.1" xmlns="http://www.w3.org/2000/svg"
      viewBox="-60 0 627.2791510616787 437.14534584555395" width="1881.837453185036"
      height="1311.4360375366618">

      <g stroke-linecap="round" class="fragment fade-out" data-fragment-index="1"
            transform="translate(228.3976436608391 75.52105500866037) rotate(0 7.422148619248446 175.8121454184468)">
            <path
                  d="M0.99 0.86 C0.99 0.86, 0.99 0.86, 0.99 0.86 M0.99 0.86 C0.99 0.86, 0.99 0.86, 0.99 0.86 M0.46 13.65 C4.27 9.71, 7.28 6.06, 11.62 0.82 M0.46 13.65 C4.24 9.43, 7.75 5.47, 11.62 0.82 M0.6 25.7 C4.64 18.94, 10.24 13.57, 15.03 9.09 M0.6 25.7 C6.35 19.45, 11.5 12.69, 15.03 9.09 M0.73 37.74 C7.24 31.99, 12.93 25.21, 15.16 21.13 M0.73 37.74 C4.67 33.72, 8.01 29.37, 15.16 21.13 M0.86 49.78 C7.38 43.91, 11.58 36.24, 15.3 33.17 M0.86 49.78 C4.67 45.5, 8.49 41.37, 15.3 33.17 M0.34 62.57 C5.68 55.66, 10.41 49.79, 15.43 45.21 M0.34 62.57 C4.58 56.89, 9.43 51.75, 15.43 45.21 M0.47 74.61 C6.57 67.49, 10.98 61.01, 15.56 57.25 M0.47 74.61 C6.48 67.52, 12.61 61.16, 15.56 57.25 M0.61 86.65 C4.62 82.14, 6.22 79.64, 15.04 70.05 M0.61 86.65 C4.21 82.97, 7.15 78.08, 15.04 70.05 M0.74 98.69 C5.43 94.41, 8.92 89.58, 15.17 82.09 M0.74 98.69 C4.45 94.94, 7.55 90.66, 15.17 82.09 M0.87 110.74 C5.37 105.94, 9.27 98.98, 15.31 94.13 M0.87 110.74 C3.69 107.14, 7.08 103.28, 15.31 94.13 M0.35 123.53 C6.06 117.15, 11.01 110.35, 15.44 106.17 M0.35 123.53 C3.52 119.63, 6.68 116.28, 15.44 106.17 M0.48 135.57 C4.52 129.73, 9.93 123.64, 15.57 118.21 M0.48 135.57 C4.05 131.64, 7.03 127.83, 15.57 118.21 M0.62 147.61 C5.04 143.04, 8.87 138.66, 15.05 131.01 M0.62 147.61 C4.33 143.84, 8.44 139.59, 15.05 131.01 M0.75 159.65 C4.21 154.82, 8.08 151.25, 15.18 143.05 M0.75 159.65 C6.24 153.54, 12.16 146.27, 15.18 143.05 M0.88 171.69 C6.82 165.79, 11.94 160.53, 15.32 155.09 M0.88 171.69 C4.61 167.39, 7.75 163.37, 15.32 155.09 M0.36 184.49 C5.12 178.12, 10.01 172.68, 15.45 167.13 M0.36 184.49 C5.02 179.12, 9.34 174.51, 15.45 167.13 M0.49 196.53 C4.81 191.6, 9.35 187.28, 15.58 179.17 M0.49 196.53 C4.23 191.71, 8.85 187.43, 15.58 179.17 M0.63 208.57 C5.62 202.97, 11.03 194.99, 15.06 191.97 M0.63 208.57 C5.01 203.42, 9.48 198.63, 15.06 191.97 M0.76 220.61 C5.74 213.07, 11.34 207.38, 15.19 204.01 M0.76 220.61 C4.71 215.49, 9.39 211.41, 15.19 204.01 M0.89 232.65 C5.36 227.31, 9.66 221.39, 15.33 216.05 M0.89 232.65 C5.59 227.03, 10.26 221.83, 15.33 216.05 M0.37 245.45 C3.83 240.98, 9.52 235.23, 15.46 228.09 M0.37 245.45 C4.14 241.03, 8.56 236.45, 15.46 228.09 M0.5 257.49 C6.61 251.34, 12.11 243.88, 15.59 240.13 M0.5 257.49 C6.55 251.43, 12.18 244.91, 15.59 240.13 M0.64 269.53 C5.35 264.11, 11.21 257.84, 15.07 252.93 M0.64 269.53 C4.18 265.23, 7.87 260.47, 15.07 252.93 M0.77 281.57 C6.66 274.76, 11.44 268.85, 15.2 264.97 M0.77 281.57 C6.32 275.42, 11.13 269.36, 15.2 264.97 M0.9 293.61 C5.98 286.9, 11.98 280.28, 15.34 277.01 M0.9 293.61 C6.69 287.9, 11.96 281.21, 15.34 277.01 M0.38 306.41 C4.84 300.95, 9.28 295.53, 15.47 289.05 M0.38 306.41 C4.33 301.34, 8.59 296.4, 15.47 289.05 M0.51 318.45 C5.48 313.04, 8.5 307.7, 15.6 301.09 M0.51 318.45 C5.42 312.56, 10.33 306.92, 15.6 301.09 M0.65 330.49 C5.17 325.33, 11.42 319.25, 15.08 313.89 M0.65 330.49 C4.6 326.56, 7.3 322.38, 15.08 313.89 M0.78 342.53 C6.08 337.2, 9.27 332.14, 15.21 325.93 M0.78 342.53 C5 337.26, 9.12 332.8, 15.21 325.93 M3.54 351.55 C5.8 348.4, 10.53 344.69, 15.35 337.97 M3.54 351.55 C6.17 348.68, 7.97 346.32, 15.35 337.97"
                  stroke="#ffffff" stroke-width="1" fill="none"></path>
            <path
                  d="M3.71 0 C6.51 -0.12, 8.52 0.08, 11.13 0 M3.71 0 C6.06 0.06, 8.22 0.09, 11.13 0 M11.13 0 C14.52 0.34, 14.5 0.92, 14.84 3.71 M11.13 0 C12.95 0.56, 14.59 2, 14.84 3.71 M14.84 3.71 C15.16 85.04, 14.94 165.8, 14.84 347.91 M14.84 3.71 C14.54 109.62, 15.13 215.93, 14.84 347.91 M14.84 347.91 C15.72 350.05, 13.11 351.49, 11.13 351.62 M14.84 347.91 C15.43 351.01, 14.07 352.65, 11.13 351.62 M11.13 351.62 C9.69 351.52, 7.84 351.59, 3.71 351.62 M11.13 351.62 C9.35 351.51, 7.83 351.55, 3.71 351.62 M3.71 351.62 C1.64 351.74, 0.03 350.97, 0 347.91 M3.71 351.62 C1.12 352.49, 0.28 350.3, 0 347.91 M0 347.91 C-0.45 254.33, -1.3 160.38, 0 3.71 M0 347.91 C0.6 233.32, 0.33 118.25, 0 3.71 M0 3.71 C-0.08 1.71, 1.36 -0.94, 3.71 0 M0 3.71 C-0.15 1.7, 2.21 -0.39, 3.71 0"
                  stroke="#ffffff" stroke-width="2" fill="none"></path>
      </g>
      <g class="fragment fade-out" data-fragment-index="1"
            transform="translate(193.7864594553805 10) rotate(0 42.03333282470703 22.5)">
            <text x="0" y="34.344" font-family="Nunito, sans-serif, Segoe UI Emoji" font-size="36px"
                  fill="#ffffff" text-anchor="start" style="white-space: pre;" direction="ltr"
                  dominant-baseline="alphabetic">ASGI</text>
      </g>
      <g transform="translate(10 129.8215697506522) rotate(0 48.18333435058594 22.5)"
      >
            <text x="0" y="34.344"
                  font-family="Nunito, sans-serif, Segoe UI Emoji" font-size="36px"
                  fill="#ffffff" text-anchor="start" style="white-space: pre;" direction="ltr"
                  dominant-baseline="alphabetic">Client</text>
      </g>
      <g stroke-linecap="round" class="fragment fade-out" data-fragment-index="2">
            <g
                  transform="translate(137.24856702100328 151.67108894997568) rotate(0 108.02285365819296 0.6504808006765757)">
                  <path
                        d="M0.47 0.9 C36.63 0.69, 180.71 -0.1, 216.79 -0.11 M-0.74 0.33 C35.33 0.82, 179.93 1.61, 216.15 1.37"
                        stroke="#ffffff" stroke-width="2" fill="none"></path>
            </g>
            <g
                  transform="translate(137.24856702100328 151.67108894997568) rotate(0 108.02285365819296 0.6504808006765757)">
                  <path
                        d="M192.65 9.91 C200.75 8.38, 205.74 6.19, 216.15 1.37 M192.65 9.91 C200.77 6.67, 209.03 2.95, 216.15 1.37"
                        stroke="#ffffff" stroke-width="2" fill="none"></path>
            </g>
            <g
                  transform="translate(137.24856702100328 151.67108894997568) rotate(0 108.02285365819296 0.6504808006765757)">
                  <path
                        d="M192.66 -7.19 C200.93 -3.86, 205.92 -1.19, 216.15 1.37 M192.66 -7.19 C200.94 -4.14, 209.2 -1.56, 216.15 1.37"
                        stroke="#ffffff" stroke-width="2" fill="none"></path>
            </g>
      </g>
      <g stroke-linecap="round" class="fragment" data-fragment-index="2">
            <g
                  transform="translate(137.24856702100328 151.67108894997568) rotate(0 132.21789314592604 14.782498091267371)">
                  <path
                        d="M0 0 C27.95 0.62, 52.71 0.86, 93.02 0 M0 0 C33.78 -0.38, 67.63 -0.95, 93.02 0 M93.02 0 C102.65 0.32, 109.02 6.66, 109.02 16 M93.02 0 C104.07 1.99, 109.8 4.41, 109.02 16 M109.02 16 C109.62 26.56, 108.9 37.98, 109.02 51.19 M109.02 16 C108.82 24.6, 108.54 32.47, 109.02 51.19 M109.02 51.19 C108.55 60.68, 115.33 65.4, 125.02 67.19 M109.02 51.19 C109.64 63.3, 113.96 66.97, 125.02 67.19 M125.02 67.19 C147.01 66.15, 165.58 67.56, 218.05 67.19 M125.02 67.19 C146.54 67.1, 165.88 65.81, 218.05 67.19"
                        stroke="#ffffff" stroke-width="2" fill="none"></path>
            </g>
            <g
                  transform="translate(137.24856702100328 151.67108894997568) rotate(0 132.21789314592604 14.782498091267371)">
                  <path
                        d="M194.42 75.36 C202.56 73.94, 207.59 71.85, 218.05 67.19 M194.42 75.36 C202.59 72.26, 210.9 68.68, 218.05 67.19"
                        stroke="#ffffff" stroke-width="2" fill="none"></path>
            </g>
            <g
                  transform="translate(137.24856702100328 151.67108894997568) rotate(0 132.21789314592604 14.782498091267371)">
                  <path
                        d="M194.69 58.26 C202.93 61.7, 207.88 64.47, 218.05 67.19 M194.69 58.26 C202.92 61.45, 211.14 64.16, 218.05 67.19"
                        stroke="#ffffff" stroke-width="2" fill="none"></path>
            </g>
      </g>
      <mask></mask>
      <g
            transform="translate(387.3958197628506 130.74933832805823) rotate(0 34.32500076293945 22.5)"
            class="fragment fade-out" data-fragment-index="2"
      >
            <text x="0" y="34.344" font-family="Nunito, sans-serif, Segoe UI Emoji" font-size="36px"
                  fill="#ffffff" text-anchor="start" style="white-space: pre;" direction="ltr"
                  dominant-baseline="alphabetic">App</text>
      </g>
      <g
            transform="translate(387.3958197628506 197.4139859175673) rotate(0 104.99166870117188 22.5)"
      >
            <text x="0" y="34.344" font-family="Nunito, sans-serif, Segoe UI Emoji" font-size="36px"
                  fill="#ffffff" text-anchor="start" style="white-space: pre;" direction="ltr"
                  dominant-baseline="alphabetic">Middlewares</text>
      </g>
      <g
            transform="translate(387.3958197628506 260.7432810965854) rotate(0 41.974998474121094 22.5)"
      >
            <text x="0" y="34.344" font-family="Nunito, sans-serif, Segoe UI Emoji" font-size="36px"
                  fill="#ffffff" text-anchor="start" style="white-space: pre;" direction="ltr"
                  dominant-baseline="alphabetic">View</text>
      </g>
      <g transform="translate(10 260.7432810965853) rotate(0 48.18333435058594 22.5)"
      >
            <text x="0" y="34.344"
                  font-family="Nunito, sans-serif, Segoe UI Emoji" font-size="36px"
                  fill="#ffffff" text-anchor="start" style="white-space: pre;" direction="ltr"
                  dominant-baseline="alphabetic">Client</text>
      </g>
      <g stroke-linecap="round">
            <g
                  transform="translate(353.6502171840957 281.2398653858196) rotate(0 -107.59062862445626 0.14787855595358224)">
                  <path
                        d="M0.23 0.06 C-35.45 0.1, -178.74 -0.11, -214.49 -0.18 M-1.11 -0.96 C-36.9 -0.68, -179.78 0.98, -215.41 1.26"
                        stroke="#ffffff" stroke-width="2" fill="none"></path>
            </g>
            <g
                  transform="translate(353.6502171840957 281.2398653858196) rotate(0 -107.59062862445626 0.14787855595358224)">
                  <path
                        d="M-192 -7.53 C-198.1 -5.08, -204.65 -2.36, -215.41 1.26 M-192 -7.53 C-198.68 -5.44, -204.75 -2.52, -215.41 1.26"
                        stroke="#ffffff" stroke-width="2" fill="none"></path>
            </g>
            <g
                  transform="translate(353.6502171840957 281.2398653858196) rotate(0 -107.59062862445626 0.14787855595358224)">
                  <path
                        d="M-191.83 9.57 C-197.91 7.53, -204.5 5.75, -215.41 1.26 M-191.83 9.57 C-198.67 7.1, -204.79 5.48, -215.41 1.26"
                        stroke="#ffffff" stroke-width="2" fill="none"></path>
            </g>
      </g>
      <mask></mask>
</svg>